#!OML:ASF F:\VICON\USERDATA\INSTALL\rory3\rory3.ASF
:FULLY-SPECIFIED
:DEGREES
258
root -6.89184 16.0624 4.10684 9.15773 17.0244 1.11031
lowerback 27.2918 2.21625 0.960778
upperback 6.21446 3.55113 3.56491
thorax -8.33304 1.72176 2.21467
lowerneck -16.163 -1.75278 -5.03168
upperneck 13.7538 -0.908324 -1.55603
head 6.8876 -0.839659 0.216429
rclavicle -8.74653e-015 1.27222e-014
rhumerus -19.3492 -27.5855 -54.0831
rradius 68.2737
rwrist 29.7451
rhand -37.4464 -10.034
rfingers 7.12502
rthumb -10.5052 -39.7515
lclavicle -8.74653e-015 1.27222e-014
lhumerus -32.7376 27.1403 58.7037
lradius 65.9508
lwrist -8.83923
lhand -30.5454 45.2984
lfingers 7.12502
lthumb -3.84419 75.2434
rfemur -59.5561 -10.2094 11.1368
rtibia 38.6516
rfoot 19.3491 -8.4849
rtoes 16.0086
lfemur -38.5885 -7.59681 -19.1866
ltibia 70.2472
lfoot -19.6386 -9.36277
ltoes -22.1493
259
root -6.9204 16.0611 4.19082 8.96644 17.434 0.800879
lowerback 27.3841 2.24231 1.25682
upperback 6.09975 3.68728 3.68626
thorax -8.50407 1.78078 2.12982
lowerneck -16.3121 -2.0679 -5.64289
upperneck 14.2334 -1.25937 -1.01976
head 7.08346 -1.00253 0.448801
rclavicle 2.14687e-014 -4.6118e-014
rhumerus -19.2068 -27.6112 -53.8803
rradius 68.1016
rwrist 29.6839
rhand -37.1363 -10.2828
rfingers 7.12502
rthumb -10.2061 -40.0152
lclavicle 2.14687e-014 -4.6118e-014
lhumerus -33.3754 27.3946 58.4208
lradius 65.5032
lwrist -9.24677
lhand -30.4897 42.8731
lfingers 7.12502
lthumb -3.79033 72.8191
rfemur -58.867 -9.87145 10.6399
rtibia 37.4139
rfoot 20.1813 -8.11525
rtoes 16.3733
lfemur -38.3718 -7.81134 -18.6086
ltibia 70.399
lfoot -19.5432 -9.59822
ltoes -22.903
260
root -6.95625 16.0529 4.27913 8.89048 17.6681 0.701045
lowerback 27.4149 2.39638 1.26236
upperback 5.9927 3.89549 3.72029
thorax -8.64978 1.87832 2.09122
lowerneck -16.2805 -2.41837 -5.92238
upperneck 14.4036 -1.70692 -0.783185
head 7.149 -1.21346 0.52175
rclavicle 0 6.36111e-015
rhumerus -19.2903 -27.7178 -53.6398
rradius 68.1413
rwrist 29.3375
rhand -36.9215 -10.3401
rfingers 7.12502
rthumb -9.99892 -40.0826
lclavicle 0 6.36111e-015
lhumerus -33.8118 27.7857 58.0285
lradius 64.7294
lwrist -9.64395
lhand -30.5515 39.9793
lfingers 7.12502
lthumb -3.85007 69.9242
rfemur -58.3853 -9.44369 10.0746
rtibia 36.3767
rfoot 21.2188 -7.62965
rtoes 16.0887
lfemur -38.2071 -7.88362 -18.2108
ltibia 70.5382
lfoot -19.5303 -9.92051
ltoes -24.1919
261
root -6.98604 16.0453 4.36688 8.94217 17.9157 0.716916
lowerback 27.2355 2.47651 1.27899
upperback 6.01307 3.99305 3.68
thorax -8.53627 1.92531 2.00888
lowerneck -16.627 -2.66247 -5.98843
upperneck 14.66 -2.03272 -0.552518
head 7.30323 -1.35717 0.566997
rclavicle 3.65764e-014 3.18055e-015
rhumerus -18.7818 -27.983 -53.6964
rradius 67.7963
rwrist 29.156
rhand -36.7067 -10.4263
rfingers 7.12502
rthumb -9.79172 -40.1786
lclavicle 3.65764e-014 3.18055e-015
lhumerus -34.2803 28.093 57.6231
lradius 64.3914
lwrist -9.63515
lhand -31.3228 39.0021
lfingers 7.12502
lthumb -4.59486 68.9323
rfemur -58.1132 -9.32673 9.66406
rtibia 35.5816
rfoot 22.6907 -7.08153
rtoes 15.5813
lfemur -38.0977 -8.06882 -17.9675
ltibia 70.6547
lfoot -19.4599 -10.2096
ltoes -24.955
262
root -7.01304 16.0507 4.45587 8.96208 18.2982 0.854772
lowerback 27.2039 2.45533 1.29364
upperback 6.04479 3.96596 3.64152
thorax -8.47989 1.9134 1.96805
lowerneck -17.0255 -2.89004 -6.17317
upperneck 14.9552 -2.31181 -0.274209
head 7.48177 -1.48041 0.65055
rclavicle -3.49861e-014 -4.92986e-014
rhumerus -18.1789 -28.0043 -53.7334
rradius 67.3792
rwrist 29.0845
rhand -36.5435 -10.1497
rfingers 7.12502
rthumb -9.63422 -39.9094
lclavicle -3.49861e-014 -4.92986e-014
lhumerus -35.1271 27.9105 57.2758
lradius 64.7232
lwrist -8.89309
lhand -32.033 39.6624
lfingers 7.12502
lthumb -5.28061 69.5766
rfemur -57.7474 -9.50374 9.26159
rtibia 35.0212
rfoot 23.9419 -6.62515
rtoes 15.3483
lfemur -37.842 -8.39541 -17.8785
ltibia 70.7118
lfoot -19.2995 -10.3816
ltoes -25.1409
263
root -7.04156 16.054 4.54702 8.93627 18.6351 0.938116
lowerback 27.1522 2.46494 1.3656
upperback 6.08266 3.9917 3.59348
thorax -8.40368 1.92527 1.86666
lowerneck -17.017 -3.16381 -6.30114
upperneck 14.9358 -2.6885 -0.0799898
head 7.48943 -1.64825 0.691643
rclavicle 3.18055e-014 0
rhumerus -17.9736 -27.9556 -53.7025
rradius 67.328
rwrist 28.911
rhand -36.608 -10.2993
rfingers 7.12502
rthumb -9.69647 -40.0561
lclavicle 3.18055e-014 0
lhumerus -35.812 27.908 56.9003
lradius 64.7923
lwrist -8.48021
lhand -32.6071 37.0128
lfingers 7.12502
lthumb -5.83493 66.9124
rfemur -57.4474 -9.62611 8.94794
rtibia 34.7103
rfoot 24.6291 -6.79853
rtoes 14.7383
lfemur -37.549 -8.61346 -17.7429
ltibia 70.7886
lfoot -19.1538 -10.5506
ltoes -25.2557
264
root -7.07197 16.0458 4.64162 8.95488 18.8655 0.861655
lowerback 26.9675 2.54925 1.437
upperback 6.12683 4.11756 3.64061
thorax -8.2644 1.98598 1.84242
lowerneck -17.1159 -3.31553 -6.29478
upperneck 15.0768 -2.8966 -0.0253628
head 7.56011 -1.74393 0.682331
rclavicle 1.59028e-015 -1.11319e-014
rhumerus -17.6099 -28.0067 -53.6052
rradius 67.1085
rwrist 29.0828
rhand -36.8878 -10.321
rfingers 7.12502
rthumb -9.96644 -40.0651
lclavicle 1.59028e-015 -1.11319e-014
lhumerus -36.2054 28.4707 56.599
lradius 64.3623
lwrist -8.68077
lhand -32.8053 34.0187
lfingers 7.12502
lthumb -6.02628 63.913
rfemur -57.4001 -9.6161 8.85671
rtibia 34.6438
rfoot 24.7769 -7.26328
rtoes 14.1568
lfemur -37.419 -8.70262 -17.4085
ltibia 70.9288
lfoot -18.9739 -10.8184
ltoes -24.9653
265
root -7.10669 16.0351 4.73621 8.96086 19.1133 0.777199
lowerback 27.0068 2.62717 1.56744
upperback 6.0722 4.25693 3.64123
thorax -8.34031 2.04864 1.71947
lowerneck -16.9894 -3.38333 -6.0927
upperneck 15.0505 -3.03198 -0.118359
head 7.52867 -1.80507 0.605429
rclavicle -1.98785e-014 1.27222e-014
rhumerus -17.352 -28.1122 -53.5312
rradius 66.8473
rwrist 29.439
rhand -36.9609 -10.287
rfingers 7.12502
rthumb -10.0369 -40.0277
lclavicle -1.98785e-014 1.27222e-014
lhumerus -36.7013 28.7529 56.3043
lradius 64.189
lwrist -8.8073
lhand -31.7228 39.0843
lfingers 7.12502
lthumb -4.98107 69.0058
rfemur -57.4539 -9.79242 9.02054
rtibia 34.8632
rfoot 25.0917 -6.95211
rtoes 11.8093
lfemur -37.3282 -8.77135 -17.0395
ltibia 71.0777
lfoot -18.8999 -11.0748
ltoes -25.031
266
root -7.1433 16.0345 4.83321 8.92426 19.4266 0.90736
lowerback 27.1114 2.65128 1.54062
upperback 6.02836 4.27559 3.53116
thorax -8.43525 2.05626 1.60165
lowerneck -16.6491 -3.57034 -5.9845
upperneck 14.8762 -3.35912 -0.0156289
head 7.42154 -1.94239 0.590293
rclavicle -3.65764e-014 2.06736e-014
rhumerus -17.2521 -28.1549 -53.6406
rradius 66.8751
rwrist 29.5937
rhand -36.857 -10.176
rfingers 7.12502
rthumb -9.93672 -39.9215
lclavicle -3.65764e-014 2.06736e-014
lhumerus -37.3856 28.5336 55.8756
lradius 64.3467
lwrist -8.49786
lhand -30.8106 46.1738
lfingers 7.12502
lthumb -4.10021 76.114
rfemur -57.3839 -10.0353 9.03378
rtibia 35.3452
rfoot 25.6206 -6.13838
rtoes 7.32768
lfemur -37.034 -8.979 -16.9003
ltibia 71.1902
lfoot -18.614 -11.3424
ltoes -24.6233
267
root -7.1808 16.0419 4.93344 8.91543 19.8004 1.03295
lowerback 27.1004 2.66721 1.44878
upperback 5.99493 4.27021 3.49515
thorax -8.47083 2.05578 1.61555
lowerneck -16.4124 -3.79679 -6.05777
upperneck 14.9295 -3.69863 0.169
head 7.41343 -2.09172 0.627102
rclavicle -2.78299e-014 -3.97569e-014
rhumerus -17.0884 -28.0338 -53.6646
rradius 66.7526
rwrist 29.5328
rhand -36.732 -9.82239
rfingers 7.12502
rthumb -9.81608 -39.5736
lclavicle -2.78299e-014 -3.97569e-014
lhumerus -38.1745 28.4654 55.3393
lradius 64.2992
lwrist -8.40441
lhand -30.5386 46.98
lfingers 7.12502
lthumb -3.83757 76.9252
rfemur -57.3876 -10.4016 9.11902
rtibia 36.0361
rfoot 25.2831 -5.57567
rtoes 5.18631
lfemur -36.7174 -9.14236 -16.7671
ltibia 71.2727
lfoot -18.357 -11.5727
ltoes -24.5148
268
root -7.21536 16.0326 5.02877 9.00917 20.0821 1.0895
lowerback 27.0087 2.70825 1.48148
upperback 5.9862 4.32948 3.48668
thorax -8.43321 2.08417 1.57053
lowerneck -16.3443 -3.99325 -6.25203
upperneck 14.9534 -3.96538 0.401218
head 7.42697 -2.20841 0.704655
rclavicle -7.39479e-014 7.95139e-014
rhumerus -16.7848 -27.9136 -53.4888
rradius 66.5924
rwrist 29.3574
rhand -36.6351 -9.60892
rfingers 7.12502
rthumb -9.72262 -39.3645
lclavicle -7.39479e-014 7.95139e-014
lhumerus -38.7296 28.8517 54.942
lradius 63.9886
lwrist -8.59957
lhand -30.594 44.5995
lfingers 7.12502
lthumb -3.8911 74.5437
rfemur -57.6237 -10.686 9.24001
rtibia 36.807
rfoot 24.8777 -4.86335
rtoes 4.39206
lfemur -36.614 -9.22348 -16.5679
ltibia 71.4346
lfoot -18.3215 -11.5976
ltoes -25.0278
269
root -7.26192 16.0083 5.12131 9.0333 20.2977 0.878821
lowerback 27.0586 2.80499 1.70855
upperback 5.97783 4.51813 3.49361
thorax -8.45567 2.16818 1.38316
lowerneck -16.4463 -4.235 -6.35538
upperneck 15.0088 -4.30303 0.629664
head 7.4813 -2.35399 0.754769
rclavicle 2.94201e-014 3.33958e-014
rhumerus -16.5873 -27.8594 -53.2204
rradius 66.6141
rwrist 28.8608
rhand -36.3464 -9.98484
rfingers 7.12502
rthumb -9.44407 -39.7532
lclavicle 2.94201e-014 3.33958e-014
lhumerus -38.9949 28.9275 54.7409
lradius 63.8992
lwrist -8.15798
lhand -30.8224 43.0996
lfingers 7.12502
lthumb -4.11168 73.0397
rfemur -57.9011 -10.5889 9.49749
rtibia 37.6029
rfoot 24.6899 -4.30878
rtoes 3.36008
lfemur -36.6853 -9.13987 -16.0111
ltibia 71.7107
lfoot -18.3626 -11.7786
ltoes -25.0518
270
root -7.31593 15.9885 5.21364 9.0625 20.5725 0.951143
lowerback 27.3049 2.91861 1.66497
upperback 5.91137 4.65651 3.42947
thorax -8.65435 2.2305 1.27859
lowerneck -16.322 -4.4548 -6.36694
upperneck 14.9418 -4.64301 0.816999
head 7.45422 -2.49852 0.781433
rclavicle -8.5875e-014 6.36111e-014
rhumerus -16.5905 -27.8415 -53.1172
rradius 66.7903
rwrist 28.2631
rhand -36.4259 -10.3011
rfingers 7.12502
rthumb -9.52074 -40.066
lclavicle -8.5875e-014 6.36111e-014
lhumerus -39.3731 28.9217 54.451
lradius 63.8638
lwrist -7.82009
lhand -30.9768 43.0198
lfingers 7.12502
lthumb -4.26069 72.957
rfemur -58.0658 -10.4 9.28333
rtibia 38.5008
rfoot 24.5242 -4.86287
rtoes 5.11693
lfemur -36.681 -9.17333 -15.7071
ltibia 71.9153
lfoot -18.0282 -12.3437
ltoes -23.541
271
root -7.36184 15.9735 5.31261 9.16794 21.0226 1.00494
lowerback 27.3942 2.91238 1.74636
upperback 5.83818 4.67739 3.41614
thorax -8.77445 2.23701 1.20473
lowerneck -16.1735 -4.69475 -6.45658
upperneck 14.7662 -4.97529 0.907827
head 7.38773 -2.65221 0.791307
rclavicle 7.95139e-016 -4.77083e-015
rhumerus -16.5559 -27.8245 -53.0126
rradius 66.5746
rwrist 28.9875
rhand -36.1095 -9.58547
rfingers 7.12502
rthumb -9.21542 -39.3641
lclavicle 7.95139e-016 -4.77083e-015
lhumerus -39.8591 29.3021 53.9599
lradius 63.4496
lwrist -8.21823
lhand -30.6651 41.9581
lfingers 7.12502
lthumb -3.95973 71.9011
rfemur -58.2507 -10.5033 9.14945
rtibia 39.5391
rfoot 24.1244 -6.00223
rtoes 8.40472
lfemur -36.7112 -9.36974 -15.3659
ltibia 72.1293
lfoot -17.7528 -12.8897
ltoes -22.5114
